<?xml version="1.0" encoding="UTF-8"?>
<svg xmlns="http://www.w3.org/2000/svg" viewBox="0 0 600 600">
  <defs>
    <!-- Glow Effect -->
    <filter id="glow">
      <feGaussianBlur stdDeviation="2" result="coloredBlur"/>
      <feFlood flood-color="#4ade80" flood-opacity="0.3" result="glowColor"/>
      <feComposite in="glowColor" in2="coloredBlur" operator="in" result="softGlow"/>
      <feMerge>
        <feMergeNode in="softGlow"/>
        <feMergeNode in="SourceGraphic"/>
      </feMerge>
    </filter>

    <!-- Gradients -->
    <linearGradient id="nodeGradient" x1="0%" y1="0%" x2="100%" y2="100%">
      <stop offset="0%" style="stop-color:#4ade80"/>
      <stop offset="50%" style="stop-color:#22c55e"/>
      <stop offset="100%" style="stop-color:#16a34a"/>
    </linearGradient>
    <linearGradient id="flowGradient" x1="50%" y1="0%" x2="50%" y2="100%">
      <stop offset="0%" style="stop-color:#8b5cf6;stop-opacity:1"/>
      <stop offset="100%" style="stop-color:#6d28d9;stop-opacity:1"/>
    </linearGradient>
  </defs>

  <!-- Outer Rotating Dotted Circle -->
  <g transform="translate(300, 300)" filter="url(#glow)">
    <circle cx="0" cy="0" r="120" fill="none" stroke="#8b5cf6" 
            stroke-width="3" stroke-dasharray="6,12" opacity="0.8">
      <animateTransform attributeName="transform" 
                        type="rotate" 
                        from="0" 
                        to="360" 
                        dur="10s" 
                        repeatCount="indefinite"/>
    </circle>

    <!-- Connection Points -->
    <g>
      <circle cx="120" cy="0" r="12" fill="url(#nodeGradient)">
        <animate attributeName="r" values="12;14;12" dur="5s" repeatCount="indefinite"/>
      </circle>
      <circle cx="85" cy="-85" r="12" fill="url(#nodeGradient)"/>
      <circle cx="0" cy="-120" r="12" fill="url(#nodeGradient)"/>
      <circle cx="-85" cy="-85" r="12" fill="url(#nodeGradient)"/>
      <circle cx="-120" cy="0" r="12" fill="url(#nodeGradient)"/>
      <circle cx="-85" cy="85" r="12" fill="url(#nodeGradient)"/>
      <circle cx="0" cy="120" r="12" fill="url(#nodeGradient)"/>
      <circle cx="85" cy="85" r="12" fill="url(#nodeGradient)"/>
    </g>

    <!-- Central Circle -->
    <circle cx="0" cy="0" r="50" fill="url(#nodeGradient)">
      <animate attributeName="r" values="40;42;40" dur="2s" repeatCount="indefinite"/>
    </circle>

    <!-- Connecting Lines -->
    <path d="M0,0 L120,0 M0,0 L85,-85 M0,0 L0,-120 M0,0 L-85,-85 M0,0 L-120,0 M0,0 L-85,85 M0,0 L0,120 M0,0 L85,85" 
          stroke="url(#flowGradient)" stroke-width="3" stroke-dasharray="6" stroke-linecap="round">
      <animate attributeName="stroke-dashoffset" values="0;-48" dur="4s" repeatCount="indefinite"/>
    </path>

    <!-- Play Icon (Moved Last to Appear on Top) -->
    <path d="M-15,-22 L20,0 L-15,22 Z" fill="#fff">
      <animateTransform attributeName="transform" 
                        type="scale" 
                        values="1;1.1;1" 
                        dur="2s" 
                        repeatCount="indefinite"/>
    </path>
  </g>
</svg>
